<svg xmlns="http://www.w3.org/2000/svg" xmlns:xlink="http://www.w3.org/1999/xlink" width="50" zoomAndPan="magnify" viewBox="0 0 37.5 37.499999" height="50" preserveAspectRatio="xMidYMid meet" version="1.0"><path stroke-linecap="round" transform="matrix(0.17023, 0, 0, 0.17023, -15.418466, -15.344454)" fill="none" stroke-linejoin="round" d="M 176.670823 221.143055 C 183.922032 158.934108 235.873731 125.615263 281.996926 100.534341 " stroke="#000000" stroke-width="16" stroke-opacity="0.9" stroke-miterlimit="4"/><path stroke-linecap="round" transform="matrix(0.17023, 0, 0, 0.17023, -15.418466, -15.344454)" fill="none" stroke-linejoin="round" d="M 279.839921 109.896661 C 269.490886 197.737254 247.461897 207.833874 181.00778 222.313345 " stroke="#000000" stroke-width="16" stroke-opacity="0.9" stroke-miterlimit="4"/><path stroke-linecap="round" transform="matrix(0.17023, 0, 0, 0.17023, -15.418466, -15.344454)" fill="none" stroke-linejoin="round" d="M 274.401514 111.066951 C 237.204649 152.371306 202.233629 195.947399 169.075411 241.060933 " stroke="#000000" stroke-width="16" stroke-opacity="0.9" stroke-miterlimit="4"/><path stroke-linecap="round" transform="matrix(0.17023, 0, 0, 0.17023, -15.418466, -15.344454)" fill="none" stroke-linejoin="round" d="M 140.345938 258.225186 C 130.501734 268.666009 115.67806 268.597169 118.339896 290.763839 C 119.785549 302.765048 217.194984 299.598381 217.194984 290.763839 C 217.194984 272.108039 204.138219 268.551275 199.847155 263.457071 C 193.169618 255.56335 212.422036 241.060933 173.022272 242.231223 C 162.329034 242.552479 151.199805 243.768662 140.345938 243.768662 " stroke="#000000" stroke-width="16" stroke-opacity="0.9" stroke-miterlimit="4"/><path stroke-linecap="round" transform="matrix(0.17023, 0, 0, 0.17023, -15.418466, -15.344454)" fill="none" stroke-linejoin="round" d="M 252.670835 155.239663 C 246.934119 156.111644 241.105616 155.882176 235.300059 155.882176 " stroke="#000000" stroke-width="16" stroke-opacity="0.9" stroke-miterlimit="4"/><path stroke-linecap="round" transform="matrix(0.17023, 0, 0, 0.17023, -15.418466, -15.344454)" fill="none" stroke-linejoin="round" d="M 230.963102 179.33387 C 228.140638 178.438942 225.203439 178.691358 222.289188 178.691358 " stroke="#000000" stroke-width="16" stroke-opacity="0.9" stroke-miterlimit="4"/></svg>